<?xml version="1.0" encoding="utf-8"?>
<!-- Generator: Adobe Illustrator 19.0.0, SVG Export Plug-In . SVG Version: 6.00 Build 0)  -->
<svg version="1.1" id="Layer_1" xmlns="http://www.w3.org/2000/svg" xmlns:xlink="http://www.w3.org/1999/xlink" x="0px" y="0px"
	 viewBox="0 0 594.1 196.6" style="enable-background:new 0 0 594.1 196.6;" xml:space="preserve">
<style type="text/css">
	.st0{fill:#464A4D;}
	.st1{filter:url(#Adobe_OpacityMaskFilter);}
	.st2{mask:url(#XMLID_128_);fill:#8cc63f;}
	.st3{filter:url(#Adobe_OpacityMaskFilter_1_);}
	.st4{mask:url(#XMLID_129_);}
	.st5{fill:none;}
	.st6{filter:url(#Adobe_OpacityMaskFilter_2_);}
	.st7{mask:url(#XMLID_130_);}
	.st8{fill:none;stroke:#464A4D;stroke-width:12;stroke-linecap:round;stroke-miterlimit:10;}
	.st9{fill:#FFFFFF;stroke:#FFFFFF;stroke-width:10.2763;stroke-miterlimit:10;}
	.st10{filter:url(#Adobe_OpacityMaskFilter_3_);}
	.st11{mask:url(#XMLID_131_);}
	.st12{fill:#8cc63f;}
</style>
<g id="XMLID_62_">
	<path id="XMLID_78_" class="st0" d="M185.1,179H182v-11.6h-4v-2.5h11.2v2.5h-4V179z"/>
	<path id="XMLID_89_" class="st0" d="M211.7,179l-1.1-3.4h-5.4l-1.1,3.4h-3.4l5.2-14.2h3.8L215,179H211.7z M209.8,173.1
		c-1-3-1.5-4.8-1.7-5.2s-0.2-0.7-0.3-0.9c-0.2,0.8-0.9,2.9-1.9,6.1H209.8z"/>
	<path id="XMLID_92_" class="st0" d="M232.7,170.7l3.1-5.8h3.4l-4.9,8.6v5.5h-3.1v-5.4l-4.9-8.7h3.4L232.7,170.7z"/>
	<path id="XMLID_96_" class="st0" d="M252.2,179v-14.1h3.1v11.7h6v2.5H252.2z"/>
	<path id="XMLID_98_" class="st0" d="M288.5,171.9c0,2.3-0.6,4.1-1.8,5.4c-1.2,1.3-3,1.9-5.2,1.9s-4-0.6-5.2-1.9
		c-1.2-1.3-1.8-3.1-1.8-5.4s0.6-4.2,1.8-5.4c1.2-1.2,3-1.9,5.2-1.9s4,0.6,5.2,1.9S288.5,169.6,288.5,171.9z M277.7,171.9
		c0,1.6,0.3,2.8,0.9,3.6c0.6,0.8,1.6,1.2,2.8,1.2c2.5,0,3.8-1.6,3.8-4.8c0-3.2-1.2-4.8-3.7-4.8c-1.2,0-2.2,0.4-2.8,1.2
		S277.7,170.4,277.7,171.9z"/>
	<path id="XMLID_101_" class="st0" d="M305.9,173.6v5.4h-3.1v-14.1h4.3c2,0,3.5,0.3,4.5,1c1,0.7,1.4,1.8,1.4,3.2
		c0,0.8-0.2,1.6-0.7,2.2c-0.5,0.6-1.2,1.2-2,1.5c2.2,3.2,3.7,5.2,4.3,6.2H311l-3.5-5.4H305.9z M305.9,171.2h1c1,0,1.7-0.2,2.2-0.5
		c0.5-0.3,0.7-0.8,0.7-1.5c0-0.7-0.2-1.1-0.7-1.4c-0.5-0.3-1.2-0.4-2.2-0.4h-1V171.2z"/>
	<path id="XMLID_104_" class="st0" d="M350.4,179l-3.6-11.1h-0.1c0.1,2.3,0.2,3.8,0.2,4.5v6.6h-2.8v-14.1h4.3l3.5,10.8h0.1l3.7-10.8
		h4.3V179H357v-6.7c0-0.3,0-0.7,0-1.1c0-0.4,0.1-1.5,0.1-3.3h-0.1l-3.8,11.1H350.4z"/>
	<path id="XMLID_106_" class="st0" d="M383.9,179l-1.1-3.4h-5.4l-1.1,3.4H373l5.2-14.2h3.8l5.2,14.2H383.9z M382.1,173.1
		c-1-3-1.5-4.8-1.7-5.2s-0.2-0.7-0.3-0.9c-0.2,0.8-0.9,2.9-1.9,6.1H382.1z"/>
	<path id="XMLID_109_" class="st0" d="M412.6,171.8c0,2.3-0.7,4.1-2.1,5.3c-1.4,1.2-3.4,1.9-6,1.9h-4.2v-14.1h4.6
		c2.4,0,4.3,0.6,5.6,1.8C411.9,167.9,412.6,169.6,412.6,171.8z M409.3,171.9c0-3-1.4-4.6-4.2-4.6h-1.7v9.2h1.3
		C407.8,176.5,409.3,175,409.3,171.9z"/>
	<path id="XMLID_112_" class="st0" d="M435.3,179h-8.5v-14.1h8.5v2.5h-5.4v3.1h5v2.5h-5v3.6h5.4V179z"/>
	<path id="XMLID_114_" class="st0" d="M474.9,175.1c0,1.3-0.5,2.3-1.4,3c-1,0.7-2.3,1.1-4,1.1c-1.6,0-3-0.3-4.2-0.9v-2.8
		c1,0.4,1.8,0.7,2.5,0.9c0.7,0.2,1.3,0.3,1.9,0.3c0.7,0,1.2-0.1,1.6-0.4c0.4-0.3,0.6-0.6,0.6-1.1c0-0.3-0.1-0.5-0.2-0.7
		c-0.2-0.2-0.4-0.4-0.7-0.6c-0.3-0.2-1-0.5-1.9-1c-0.9-0.4-1.6-0.8-2-1.2s-0.8-0.8-1.1-1.3c-0.3-0.5-0.4-1.1-0.4-1.7
		c0-1.3,0.4-2.2,1.3-3c0.9-0.7,2.1-1.1,3.7-1.1c0.8,0,1.5,0.1,2.2,0.3c0.7,0.2,1.4,0.4,2.2,0.7l-1,2.3c-0.8-0.3-1.4-0.5-2-0.6
		c-0.5-0.1-1-0.2-1.5-0.2c-0.6,0-1,0.1-1.4,0.4c-0.3,0.3-0.5,0.6-0.5,1c0,0.3,0.1,0.5,0.2,0.7c0.1,0.2,0.3,0.4,0.6,0.6
		c0.3,0.2,0.9,0.5,2,1c1.4,0.6,2.3,1.3,2.8,1.9C474.6,173.4,474.9,174.2,474.9,175.1z"/>
	<path id="XMLID_116_" class="st0" d="M497.8,179l-1.1-3.4h-5.4l-1.1,3.4h-3.4l5.2-14.2h3.8l5.2,14.2H497.8z M496,173.1
		c-1-3-1.5-4.8-1.7-5.2s-0.2-0.7-0.3-0.9c-0.2,0.8-0.9,2.9-1.9,6.1H496z"/>
	<path id="XMLID_120_" class="st0" d="M517.3,179h-3.1v-14.1h8.5v2.5h-5.4v3.6h5v2.4h-5V179z"/>
	<path id="XMLID_122_" class="st0" d="M545.3,179h-8.5v-14.1h8.5v2.5h-5.4v3.1h5v2.5h-5v3.6h5.4V179z"/>
	<path id="XMLID_124_" class="st0" d="M565.2,179h-3.1v-11.6h-4v-2.5h11.2v2.5h-4V179z"/>
	<path id="XMLID_126_" class="st0" d="M587.3,170.7l3.1-5.8h3.4l-4.9,8.6v5.5h-3.1v-5.4l-4.9-8.7h3.4L587.3,170.7z"/>
</g>
<g id="XMLID_536_">
	<path id="XMLID_72_" class="st0" d="M237.5,125.8h-27.7v-90h-35.5V16.4H273v19.3h-35.5V125.8z"/>
	<path id="XMLID_74_" class="st0" d="M348.5,125.8L317,40h-0.8c1.1,17.5,1.7,29.1,1.7,34.9v50.9h-24.8V16.4h37.8l31,83.6h0.5
		l32.8-83.6H433v109.3h-25.9V74c0-2.4,0-5.3,0.1-8.5c0.1-3.2,0.5-11.7,1.2-25.4h-0.8L374,125.8H348.5z"/>
	<path id="XMLID_76_" class="st0" d="M543.2,95.4c0,9.9-4.3,17.7-12.8,23.3c-8.5,5.7-20.3,8.5-35.5,8.5c-14,0-26.3-2.2-37.1-6.6
		V99.1c8.8,3.3,16.3,5.6,22.4,7c6.1,1.3,11.7,2,16.8,2c6.1,0,10.8-1,14-2.9c3.3-1.9,4.9-4.8,4.9-8.7c0-2.1-0.7-4.1-2.1-5.7
		c-1.4-1.7-3.5-3.3-6.3-4.8c-2.8-1.5-8.4-4-17-7.4c-8-3.1-14-6.2-18-9c-4-2.9-7.2-6.3-9.6-10.1c-2.4-3.8-3.6-8.3-3.6-13.5
		c0-9.7,3.9-17.3,11.8-22.8c7.8-5.5,18.7-8.3,32.5-8.3c6.8,0,13.3,0.7,19.5,2c6.2,1.3,12.6,3.2,19.4,5.7l-9,18
		c-7-2.4-12.8-4.1-17.3-5c-4.6-0.9-9.1-1.4-13.5-1.4c-5.3,0-9.3,1-12.1,3.1c-2.8,2-4.2,4.7-4.2,8c0,2,0.6,3.8,1.7,5.3
		c1.1,1.5,2.9,3,5.4,4.4c2.5,1.4,8.3,4,17.6,7.7c12.2,4.9,20.6,9.8,25.2,14.7C540.9,82.2,543.2,88.3,543.2,95.4z"/>
</g>
<g id="XMLID_514_">
	<defs>
		<filter id="Adobe_OpacityMaskFilter" filterUnits="userSpaceOnUse" x="563" y="94.3" width="31" height="31">
			<feFlood  style="flood-color:white;flood-opacity:1" result="back"/>
			<feBlend  in="SourceGraphic" in2="back" mode="normal"/>
		</filter>
	</defs>
	<mask maskUnits="userSpaceOnUse" x="563" y="94.3" width="31" height="31" id="XMLID_128_">
		<g id="XMLID_54_" class="st1">
		</g>
	</mask>
	<polygon id="XMLID_523_" class="st2" points="572.1,125.3 563,116.2 563,103.2 572.1,94.3 585.1,94.3 594,103.2 594,116.2 
		585.1,125.3 	"/>
	<defs>
		<filter id="Adobe_OpacityMaskFilter_1_" filterUnits="userSpaceOnUse" x="563" y="94.3" width="31" height="31">
			<feFlood  style="flood-color:white;flood-opacity:1" result="back"/>
			<feBlend  in="SourceGraphic" in2="back" mode="normal"/>
		</filter>
	</defs>
	<mask maskUnits="userSpaceOnUse" x="563" y="94.3" width="31" height="31" id="XMLID_129_">
		<g id="XMLID_48_" class="st3">
			
				<rect id="XMLID_49_" x="553.6" y="95.1" transform="matrix(0.7071 -0.7071 0.7071 0.7071 94.8636 435.6955)" width="39.4" height="16.5"/>
		</g>
	</mask>
	<g id="XMLID_515_" class="st4">
		<polygon id="XMLID_14_" class="st5" points="572.1,125.3 563,116.2 563,103.2 572.1,94.3 585.1,94.3 594,103.2 594,116.2 
			585.1,125.3 		"/>
	</g>
</g>
<g id="XMLID_557_">
	<defs>
		<filter id="Adobe_OpacityMaskFilter_2_" filterUnits="userSpaceOnUse" x="12" y="84.5" width="149" height="112.1">
			<feFlood  style="flood-color:white;flood-opacity:1" result="back"/>
			<feBlend  in="SourceGraphic" in2="back" mode="normal"/>
		</filter>
	</defs>
	<mask maskUnits="userSpaceOnUse" x="12" y="84.5" width="149" height="112.1" id="XMLID_130_">
		<g id="XMLID_8_" class="st6">
			<path id="XMLID_559_" d="M21.4,112.8v26.8c0,4.9,4,8.9,8.9,8.9h34.6c6.2,0,11.7-4.1,13.6-10l1.9-6.2c2.6-8.5,10.1-8.4,12.7,0.1
				l1.9,6.2c1.8,6,7.3,10,13.6,10h34.7c4.7,0,8.5-3.8,8.5-8.5v-27.2c0-4.4-3.6-8-8-8l-114.4,0C24.9,104.8,21.4,108.4,21.4,112.8z"/>
		</g>
	</mask>
	<g id="XMLID_7_" class="st7">
		<path id="XMLID_560_" class="st0" d="M86.7,84.6c38.4,0,70.5-3.3,64.3,34.6c-3.5,21.4-0.9,44.6-19.9,56.7
			c-18.4,11.6-18,21.7-44.4,20.7c-26.5,1-26.1-9.1-44.4-20.7c-19-12-16.4-35.3-19.9-56.7C16.2,81.3,48.3,84.6,86.7,84.6"/>
		<line id="XMLID_577_" class="st8" x1="18" y1="105.3" x2="18" y2="125.3"/>
		<line id="XMLID_576_" class="st8" x1="155" y1="105.3" x2="155" y2="125.3"/>
	</g>
	<line id="XMLID_558_" class="st9" x1="98.6" y1="169.3" x2="74.1" y2="169.3"/>
	<defs>
		<filter id="Adobe_OpacityMaskFilter_3_" filterUnits="userSpaceOnUse" x="0" y="0" width="172.6" height="105.8">
			<feFlood  style="flood-color:white;flood-opacity:1" result="back"/>
			<feBlend  in="SourceGraphic" in2="back" mode="normal"/>
		</filter>
	</defs>
	<mask maskUnits="userSpaceOnUse" x="0" y="0" width="172.6" height="105.8" id="XMLID_131_">
		<g id="XMLID_16_" class="st10">
			<g id="XMLID_9_">
				<polygon id="XMLID_11_" points="67,86.4 66.9,9 57.3,12.1 				"/>
				<polygon id="XMLID_70_" points="105.7,9.2 106,86.4 115.7,12.1 				"/>
			</g>
		</g>
	</mask>
	<g id="XMLID_562_" class="st11">
		<g id="XMLID_10_">
			<g id="XMLID_93_">
				<path id="XMLID_94_" class="st12" d="M164,74.7c-4.3-31.7-27.7-57.6-58.3-65.4V0H66.9v9.3C36.3,17.2,13,43.1,8.6,74.7H0v31.1
					h66.9v0.1h38.8v-0.1h66.9V74.7H164z"/>
			</g>
		</g>
	</g>
</g>
</svg>
